#!OML:ASF E:\acrobat2\Project_11_07_03\Capture day 1\Session 1\Acrobat.ASF
:FULLY-SPECIFIED
:DEGREES
268
root 10.2041 27.8949 35.6236 9.68842 7.52275 -0.624201
lowerback 3.52064 2.63996 4.16403
upperback 3.76724 3.61464 -1.1273
thorax 2.24537 1.9301 -3.53625
lowerneck -2.47813 -3.67817 -2.88658
upperneck 24.4491 -5.20535 2.5025
head 8.09302 -2.44344 0.934349
rclavicle -2.79292e-014 2.48481e-015
rhumerus -32.3377 4.81952 -79.326
rradius 37.2086
rwrist 14.4482
rhand 4.74901 -20.7239
rfingers 7.12502
rthumb 30.1305 -48.2874
lclavicle -2.79292e-014 2.48481e-015
lhumerus -24.8119 -5.34153 82.093
lradius 35.6948
lwrist 7.06748
lhand -9.58184 -13.5341
lfingers 7.12502
lthumb 16.3863 15.7937
rfemur -12.6291 2.80586 23.7663
rtibia 9.08787
rfoot -23.163 -16.6174
rtoes -8.86656
lfemur -28.7159 0.276517 -15.4046
ltibia 30.1999
lfoot 1.67715 -12.4848
ltoes 42.3666
269
root 10.2073 27.8921 35.6011 9.68062 7.47902 -0.729504
lowerback 3.48311 2.69428 4.35053
upperback 3.74089 3.68917 -1.12034
thorax 2.2587 1.97169 -3.63223
lowerneck -2.48861 -3.70474 -2.98857
upperneck 24.3928 -5.24425 2.56887
head 8.08184 -2.46509 0.97047
rclavicle 2.15681e-014 -1.33186e-014
rhumerus -32.786 5.71217 -79.2999
rradius 37.8266
rwrist 13.5731
rhand 4.88381 -20.7224
rfingers 7.12502
rthumb 30.2591 -48.2624
lclavicle 2.15681e-014 -1.33186e-014
lhumerus -24.9416 -5.27627 82.151
lradius 35.5721
lwrist 6.87453
lhand -9.2599 -13.4401
lfingers 7.12502
lthumb 16.6962 15.8619
rfemur -12.2813 2.92866 23.7878
rtibia 8.66728
rfoot -23.3138 -16.7219
rtoes -9.67379
lfemur -28.5036 0.348145 -15.4585
ltibia 29.7856
lfoot 1.15919 -12.3186
ltoes 41.8972
270
root 10.2102 27.8883 35.5792 9.68911 7.41029 -0.859084
lowerback 3.41389 2.72655 4.50509
upperback 3.71507 3.7321 -1.10459
thorax 2.28472 1.99678 -3.69939
lowerneck -2.5263 -3.70483 -3.05205
upperneck 24.3458 -5.24437 2.60476
head 8.07552 -2.46776 0.99241
rclavicle 1.01877e-014 1.30204e-014
rhumerus -33.1193 6.44987 -79.3129
rradius 38.3544
rwrist 12.922
rhand 5.05787 -20.6823
rfingers 7.12502
rthumb 30.4252 -48.1917
lclavicle 1.01877e-014 1.30204e-014
lhumerus -25.0812 -5.15772 82.152
lradius 35.458
lwrist 6.7012
lhand -8.99173 -13.3899
lfingers 7.12502
lthumb 16.9544 15.8901
rfemur -11.9603 3.05719 23.8288
rtibia 8.26355
rfoot -23.3989 -16.8448
rtoes -10.7242
lfemur -28.2784 0.417795 -15.4858
ltibia 29.3614
lfoot 0.482823 -12.0425
ltoes 41.2771
271
root 10.2123 27.8834 35.5581 9.71011 7.31851 -0.994602
lowerback 3.31639 2.74176 4.60939
upperback 3.69071 3.74985 -1.08613
thorax 2.32193 2.00824 -3.73396
lowerneck -2.5806 -3.6837 -3.06938
upperneck 24.3048 -5.21401 2.61131
head 8.07106 -2.45467 0.998858
rclavicle -2.66371e-014 -2.06736e-014
rhumerus -33.3352 6.99206 -79.3685
rradius 38.7944
rwrist 12.4963
rhand 5.23873 -20.6298
rfingers 7.12502
rthumb 30.5976 -48.1072
lclavicle -2.66371e-014 -2.06736e-014
lhumerus -25.2279 -4.9703 82.1011
lradius 35.3584
lwrist 6.52077
lhand -8.75819 -13.3727
lfingers 7.12502
lthumb 17.1792 15.8879
rfemur -11.6609 3.19756 23.8673
rtibia 7.89229
rfoot -23.4776 -16.9409
rtoes -11.6899
lfemur -28.0313 0.479233 -15.5027
ltibia 28.9328
lfoot -0.507818 -11.7962
ltoes 39.4746
272
root 10.2138 27.8768 35.5375 9.73414 7.20345 -1.10577
lowerback 3.20442 2.75419 4.65219
upperback 3.66545 3.76205 -1.07022
thorax 2.36157 2.01545 -3.73603
lowerneck -2.62381 -3.65417 -3.08242
upperneck 24.2671 -5.17218 2.61426
head 8.06511 -2.43629 1.00452
rclavicle 1.11319e-014 -1.16289e-014
rhumerus -33.4702 7.3306 -79.4455
rradius 39.1596
rwrist 12.2688
rhand 5.38656 -20.5859
rfingers 7.12502
rthumb 30.7386 -48.0369
lclavicle 1.11319e-014 -1.16289e-014
lhumerus -25.382 -4.78887 82.0388
lradius 35.2621
lwrist 6.36676
lhand -8.55424 -13.371
lfingers 7.12502
lthumb 17.3755 15.8724
rfemur -11.372 3.33046 23.8648
rtibia 7.55128
rfoot -23.5444 -17.004
rtoes -12.6353
lfemur -27.7466 0.517284 -15.5435
ltibia 28.5065
lfoot -1.47233 -11.4967
ltoes 38.0602
